HIERARCHY
ROOT hip
{
	OFFSET 0.000000 0.000000 0.000000
	CHANNELS 6 Xposition Yposition Zposition Xrotation Zrotation Yrotation 
	JOINT abdomen
	{
		OFFSET 0.000000 3.422050 0.000000
		CHANNELS 3 Xrotation Zrotation Yrotation 
		JOINT chest
		{
			OFFSET 0.000000 8.486693 -0.6844110
			CHANNELS 3 Xrotation Zrotation Yrotation 
			JOINT neck
			{
				OFFSET 0.000000 10.26616 -0.2737640
				CHANNELS 3 Xrotation Zrotation Yrotation 
				JOINT head
				{
					OFFSET 0.000000 3.148285 0.000000
					CHANNELS 3 Xrotation Zrotation Yrotation 
					End Site
					{
						OFFSET 0.000000 3.148289 0.000000
					}
				}
			}
			JOINT lCollar
			{
				OFFSET 3.422053 6.707223 -0.8212930
				CHANNELS 3 Yrotation Zrotation Xrotation 
				JOINT lShldr
				{
					OFFSET 3.285171 0.000000 0.000000
					CHANNELS 3 Zrotation Yrotation Xrotation 
					JOINT lForeArm
					{
						OFFSET 10.12928 0.000000 0.000000
						CHANNELS 3 Yrotation Zrotation Xrotation 
						JOINT lHand
						{
							OFFSET 8.486692 0.000000 0.000000
							CHANNELS 3 Zrotation Yrotation Xrotation 
							End Site
							{
								OFFSET 4.106464 0.000000 0.000000
							}
						}
					}
				}
			}
			JOINT rCollar
			{
				OFFSET -3.558935 6.707223 -0.8212930
				CHANNELS 3 Yrotation Zrotation Xrotation 
				JOINT rShldr
				{
					OFFSET -3.148289 0.000000 0.000000
					CHANNELS 3 Zrotation Yrotation Xrotation 
					JOINT rForeArm
					{
						OFFSET -10.26616 0.000000 0.000000
						CHANNELS 3 Yrotation Zrotation Xrotation 
						JOINT rHand
						{
							OFFSET -8.349810 0.000000 0.000000
							CHANNELS 3 Zrotation Yrotation Xrotation 
							End Site
							{
								OFFSET -4.106464 0.000000 0.000000
							}
						}
					}
				}
			}
		}
	}
	JOINT lThigh
	{
		OFFSET 5.338403 -1.642589 1.368821
		CHANNELS 3 Xrotation Zrotation Yrotation 
		JOINT lShin
		{
			OFFSET -2.053232 -20.12167 0.000000
			CHANNELS 3 Xrotation Zrotation Yrotation 
			JOINT lFoot
			{
				OFFSET 0.000000 -19.30038 -1.231939
				CHANNELS 3 Xrotation Yrotation Zrotation 
				End Site
				{
					OFFSET 0.000000 -2.463878 4.653993
				}
			}
		}
	}
	JOINT rThigh
	{
		OFFSET -5.338403 -1.642589 1.368821
		CHANNELS 3 Xrotation Zrotation Yrotation 
		JOINT rShin
		{
			OFFSET 2.053232 -20.12167 0.000000
			CHANNELS 3 Xrotation Zrotation Yrotation 
			JOINT rFoot
			{
				OFFSET 0.000000 -19.30038 -1.231939
				CHANNELS 3 Xrotation Yrotation Zrotation 
				End Site
				{
					OFFSET 0.000000 -2.463878 4.653993
				}
			}
		}
	}
}
MOTION
Frames:	12
Frame Time:	0.03333333
0.000000 43.52852 0.000000 0.000000 0.000000 0.000000 0.000000 0.000000 0.000000 0.000000 0.000000 0.000000 0.000000 0.000000 0.000000 0.000000 0.000000 0.000000 0.000000 0.000000 0.000000 0.000000 0.000000 0.000000 0.000000 0.000000 0.000000 0.000000 0.000000 0.000000 0.000000 0.000000 0.000000 0.000000 0.000000 0.000000 0.000000 0.000000 0.000000 0.000000 0.000000 0.000000 0.000000 0.000000 0.000000 0.000000 0.000000 0.000000 0.000000 0.000000 0.000000 0.000000 0.000000 0.000000 0.000000 0.000000 0.000000 0.000000 0.000000 0.000000 
0.000000 43.52852 0.000000 1.000000 0.000000 0.000000 1.000000 0.000000 0.000000 1.000000 0.000000 0.000000 1.000000 0.000000 0.000000 1.000000 0.000000 0.000000 0.000000 0.000000 1.000000 -74.00000 -75.00000 0.000000 -104.0000 14.00000 0.000000 0.000000 0.000000 -90.00000 0.000000 0.000000 1.000000 74.00000 75.00000 0.000000 104.0000 -14.00000 0.000000 0.000000 0.000000 -90.00000 -11.00000 0.000000 0.000000 25.00000 0.000000 0.000000 -14.00000 0.000000 0.000000 -11.00000 0.000000 0.000000 25.00000 0.000000 0.000000 -14.00000 0.000000 0.000000 
0.8461539 43.52852 0.000000 1.000000 0.000000 0.000000 1.000000 0.000000 0.000000 1.000000 0.000000 0.000000 1.000000 0.000000 0.000000 1.000000 0.000000 0.000000 0.000000 0.000000 1.000000 -74.00000 -77.69231 0.000000 -101.5385 14.00000 0.000000 0.000000 0.000000 -90.00000 0.000000 0.000000 1.000000 74.00000 77.69231 0.000000 101.5385 -14.00000 0.000000 0.000000 0.000000 -90.00000 -11.00000 1.538462 1.000000 25.00000 0.000000 0.000000 -14.00000 0.000000 0.000000 -11.00000 -1.538462 -1.000000 25.00000 0.000000 0.000000 -14.00000 0.000000 0.000000 
1.692308 43.52852 0.000000 1.000000 0.000000 0.000000 1.000000 0.000000 0.000000 1.000000 0.000000 0.000000 1.000000 0.000000 0.000000 1.000000 0.000000 0.000000 0.000000 0.000000 1.000000 -74.00000 -80.38461 0.000000 -99.07692 14.00000 0.000000 0.000000 0.000000 -90.00000 0.000000 0.000000 1.000000 74.00000 80.38461 0.000000 99.07692 -14.00000 0.000000 0.000000 0.000000 -90.00000 -11.00000 3.076923 2.000000 25.00000 0.000000 0.000000 -14.00000 0.000000 0.000000 -11.00000 -3.076923 -2.000000 25.00000 0.000000 0.000000 -14.00000 0.000000 0.000000 
2.538461 43.52852 0.000000 1.000000 0.000000 0.000000 1.000000 0.000000 0.000000 1.000000 0.000000 0.000000 1.000000 0.000000 0.000000 1.000000 0.000000 0.000000 0.000000 0.000000 1.000000 -74.00000 -83.07692 0.000000 -96.61539 14.00000 0.000000 0.000000 0.000000 -90.00000 0.000000 0.000000 1.000000 74.00000 83.07692 0.000000 96.61539 -14.00000 0.000000 0.000000 0.000000 -90.00000 -11.00000 4.615385 3.000000 25.00000 0.000000 0.000000 -14.00000 0.000000 0.000000 -11.00000 -4.615385 -3.000000 25.00000 0.000000 0.000000 -14.00000 0.000000 0.000000 
3.384615 43.52852 0.000000 1.000000 0.000000 0.000000 1.000000 0.000000 0.000000 1.000000 0.000000 0.000000 1.000000 0.000000 0.000000 1.000000 0.000000 0.000000 0.000000 0.000000 1.000000 -74.00000 -85.76923 0.000000 -94.15385 14.00000 0.000000 0.000000 0.000000 -90.00000 0.000000 0.000000 1.000000 74.00000 85.76923 0.000000 94.15385 -14.00000 0.000000 0.000000 0.000000 -90.00000 -11.00000 6.153846 4.000000 25.00000 0.000000 0.000000 -14.00000 0.000000 0.000000 -11.00000 -6.153846 -4.000000 25.00000 0.000000 0.000000 -14.00000 0.000000 0.000000 
4.230769 43.52852 0.000000 1.000000 0.000000 0.000000 1.000000 0.000000 0.000000 1.000000 0.000000 0.000000 1.000000 0.000000 0.000000 1.000000 0.000000 0.000000 0.000000 0.000000 1.000000 -74.00000 -88.46154 0.000000 -91.69231 14.00000 0.000000 0.000000 0.000000 -90.00000 0.000000 0.000000 1.000000 74.00000 88.46154 0.000000 91.69231 -14.00000 0.000000 0.000000 0.000000 -90.00000 -11.00000 7.692307 5.000000 25.00000 0.000000 0.000000 -14.00000 0.000000 0.000000 -11.00000 -7.692307 -5.000000 25.00000 0.000000 0.000000 -14.00000 0.000000 0.000000 
5.076923 43.52852 0.000000 1.000000 0.000000 0.000000 1.000000 0.000000 0.000000 1.000000 0.000000 0.000000 1.000000 0.000000 0.000000 1.000000 0.000000 0.000000 0.000000 0.000000 1.000000 -74.00000 -91.15385 0.000000 -89.23077 14.00000 0.000000 0.000000 0.000000 -90.00000 0.000000 0.000000 1.000000 74.00000 91.15385 0.000000 89.23077 -14.00000 0.000000 0.000000 0.000000 -90.00000 -11.00000 9.230769 6.000000 25.00000 0.000000 0.000000 -14.00000 0.000000 0.000000 -11.00000 -9.230769 -6.000000 25.00000 0.000000 0.000000 -14.00000 0.000000 0.000000 
5.923077 43.52852 0.000000 1.000000 0.000000 0.000000 1.000000 0.000000 0.000000 1.000000 0.000000 0.000000 1.000000 0.000000 0.000000 1.000000 0.000000 0.000000 0.000000 0.000000 1.000000 -74.00000 -93.84615 0.000000 -86.76923 14.00000 0.000000 0.000000 0.000000 -90.00000 0.000000 0.000000 1.000000 74.00000 93.84615 0.000000 86.76923 -14.00000 0.000000 0.000000 0.000000 -90.00000 -11.00000 10.76923 7.000000 25.00000 0.000000 0.000000 -14.00000 0.000000 0.000000 -11.00000 -10.76923 -7.000000 25.00000 0.000000 0.000000 -14.00000 0.000000 0.000000 
6.769231 43.52852 0.000000 1.000000 0.000000 0.000000 1.000000 0.000000 0.000000 1.000000 0.000000 0.000000 1.000000 0.000000 0.000000 1.000000 0.000000 0.000000 0.000000 0.000000 1.000000 -74.00000 -96.53846 0.000000 -84.30769 14.00000 0.000000 0.000000 0.000000 -90.00000 0.000000 0.000000 1.000000 74.00000 96.53846 0.000000 84.30769 -14.00000 0.000000 0.000000 0.000000 -90.00000 -11.00000 12.30769 8.000000 25.00000 0.000000 0.000000 -14.00000 0.000000 0.000000 -11.00000 -12.30769 -8.000000 25.00000 0.000000 0.000000 -14.00000 0.000000 0.000000 
7.615385 43.52852 0.000000 1.000000 0.000000 0.000000 1.000000 0.000000 0.000000 1.000000 0.000000 0.000000 1.000000 0.000000 0.000000 1.000000 0.000000 0.000000 0.000000 0.000000 1.000000 -74.00000 -99.23077 0.000000 -81.84615 14.00000 0.000000 0.000000 0.000000 -90.00000 0.000000 0.000000 1.000000 74.00000 99.23077 0.000000 81.84615 -14.00000 0.000000 0.000000 0.000000 -90.00000 -11.00000 13.84615 9.000000 25.00000 0.000000 0.000000 -14.00000 0.000000 0.000000 -11.00000 -13.84615 -9.000000 25.00000 0.000000 0.000000 -14.00000 0.000000 0.000000 
8.461538 43.52852 0.000000 1.000000 0.000000 0.000000 1.000000 0.000000 0.000000 1.000000 0.000000 0.000000 1.000000 0.000000 0.000000 1.000000 0.000000 0.000000 0.000000 0.000000 1.000000 -74.00000 -101.9231 0.000000 -79.38461 14.00000 0.000000 0.000000 0.000000 -90.00000 0.000000 0.000000 1.000000 74.00000 101.9231 0.000000 79.38461 -14.00000 0.000000 0.000000 0.000000 -90.00000 -11.00000 15.38461 10.00000 25.00000 0.000000 0.000000 -14.00000 0.000000 0.000000 -11.00000 -15.38461 -10.00000 25.00000 0.000000 0.000000 -14.00000 0.000000 0.000000 
